<svg width="238" height="237" xmlns="http://www.w3.org/2000/svg" overflow="hidden">
  <!-- svgo optimized/prettified: https://raw.githubusercontent.com/python/cpython/v3.11.0/PC/icons/logo.svg -->
  <defs>
    <clipPath id="a">
      <path d="M706-314h238v237H706z" fill-rule="evenodd" clip-rule="evenodd"/>
    </clipPath>
  </defs>
  <g clip-path="url(#a)" transform="translate(-706 314)" fill-rule="evenodd">
    <path d="M792.441-295.763c-5.945 0-10.744 4.784-10.744 10.701 0 5.896 4.799 10.68 10.744 10.68 5.924 0 10.743-4.784 10.743-10.68 0-5.917-4.819-10.701-10.743-10.701zm31.031-17.235c9.805-.045 20.012.669 29.864 2.274C868.899-308.185 882-296.728 882-281.516v53.444c0 15.674-12.718 28.515-28.664 28.515H796.03c-19.45 0-35.841 16.388-35.841 34.916V-139h-19.704c-16.668 0-26.371-11.877-30.448-28.494-5.499-22.326-5.265-35.63 0-57.011 4.565-18.654 19.152-28.495 35.82-28.495h78.836v-7.134h-57.328v-21.382c0-16.199 4.395-25.011 28.665-29.208 8.238-1.427 17.638-2.229 27.442-2.274z" fill="#366A96"/>
    <path d="M857.377-117.071c-5.911 0-10.722 4.804-10.722 10.723 0 5.942 4.811 10.745 10.722 10.745 5.933 0 10.722-4.803 10.722-10.745 0-5.919-4.789-10.723-10.722-10.723zM889.563-253h21.444c16.655 0 24.495 12.304 28.607 28.61 5.72 22.647 5.975 39.586 0 57.242-5.786 17.148-11.972 28.609-28.607 28.609h-85.796v7.164h57.191v21.467c0 16.264-14.197 24.502-28.606 28.61-21.676 6.195-39.074 5.247-57.19 0C781.476-85.68 768-94.632 768-109.907v-53.66c0-15.442 12.947-28.631 28.606-28.631h57.19c19.05 0 35.767-16.369 35.767-35.772z" fill="#FFC836"/>
  </g>
</svg>
