<svg xmlns="http://www.w3.org/2000/svg" width="61.351" height="58.39" overflow="visible" xml:space="preserve">
  <!-- svgo optimized/prettified, removed text: https://trac.ffmpeg.org/raw-attachment/wiki/SubmitALogo/ffmpeg-logo.svg -->
  <path fill="#0B4819" d="M.511 12.364V5.078l4.891 1.685v6.778zM4.455 42.317V15.226l4.675.989v25.178z"/>
  <path fill="#105C80" d="m55.516 44.305-3.35 3.149 8.496.459v8.068l-26.65-2.064 13.585-13.179v-6.495L28.175 53.465 4.919 51.667 42.222 11.55l-6.139.332L9.13 41.393V16.215l2.553-3.014-6.281.34V6.763l21.919-1.697-12.015 13.78v5.864l17.82-20.093 28.225-2.185-41.517 43.274 5.527.291 30.155-30.843z"/>
  <path fill="#0B4819" d="m4.455 15.226 2.704-3.255 4.524 1.23-2.553 3.014z"/>
  <path fill="#084010" d="m11.004 18.039 4.302.807v5.864l-4.302-.352z"/>
  <path fill="#0C541E" d="m15.82 47.006 4.014-1.3 5.527.291-3.647 1.349z"/>
  <path fill="#1A5C34" d="m23.808 3.106 3.513 1.96-12.015 13.78-4.302-.807z"/>
  <path fill="#0B4819" d="M11.004 24.358 30.022 2.58l3.104 2.037-17.82 20.093z"/>
  <path fill="#1A5C34" d="m33.195 10.432 2.888 1.45L9.13 41.393l-4.675.924z"/>
  <path fill="#0B4819" d="m0 53.344 39.798-43.302 2.424 1.508L4.919 51.667z"/>
  <path fill="#1A5C34" d="m45.597 34.677 2-.434-19.422 19.222-3.454 1.972z"/>
  <path fill="#0B4819" d="M45.597 41.737v-7.06l2-.434v6.495z"/>
  <path fill="#0B4819" d="m30.973 55.965 14.624-14.228 2-.999-13.585 13.179z"/>
  <path fill="#13802D" d="m54.168 45.648-3.63 3.411 1.628-1.605 3.35-3.149z"/>
  <path fill="#0B4819" d="M21.714 47.346 54.168 13.9l1.348 1.254-30.155 30.843z"/>
  <path fill="#084010" d="m54.168 13.9 1.348 1.254v29.151l-1.348 1.343zM59.759 49.604l.903-1.691v8.068l-.903 2.422z"/>
  <path fill="#1A5C34" d="m60.507 0 .844 2.432-41.517 43.274-4.014 1.3z"/>
  <radialGradient id="a" cx="-122.394" cy="442.723" r="29.58" fx="-122.394" fy="442.723" gradientTransform="matrix(1 0 0 -1 134.446 453.733)" gradientUnits="userSpaceOnUse">
    <stop offset="0" style="stop-color:#fff"/>
    <stop offset="1" style="stop-color:#007808"/>
  </radialGradient>
  <path fill="url(#a)" d="m54.168 45.648-3.63 3.411 9.221.545v8.799l-28.786-2.438 14.624-14.228v-7.06l-20.876 20.76L0 53.344l39.798-43.302-6.603.39-28.74 31.885V15.226l2.704-3.255-6.648.393V5.078l23.297-1.972-12.804 14.933v6.319L30.022 2.58 60.507 0 15.82 47.006l5.894.34L54.168 13.9z"/>
</svg>
